<svg width="800" height="800" viewBox="0 0 800 800" fill="none" xmlns="http://www.w3.org/2000/svg">
<path d="M195.671 109.336C354.398 119.062 426.076 105.978 476.086 105.978C522.596 105.978 544.48 258.93 525.366 304.096C507.344 346.682 200.662 348.392 186.384 331.526C169.873 312.016 179.419 230.55 179.419 202.602" stroke="black" stroke-opacity="0.9" stroke-width="32" stroke-linecap="round" stroke-linejoin="round"/>
<path d="M196.664 381.388C-21.3194 582.97 242.5 546.996 296.466 590.166" stroke="black" stroke-opacity="0.9" stroke-width="32" stroke-linecap="round" stroke-linejoin="round"/>
<path d="M196.66 381.388C199.583 427.404 202.328 531.394 200.526 545.796" stroke="black" stroke-opacity="0.9" stroke-width="32" stroke-linecap="round" stroke-linejoin="round"/>
<path d="M416.616 272.478C416.616 263.918 416.616 255.356 416.616 246.792" stroke="black" stroke-opacity="0.9" stroke-width="32" stroke-linecap="round" stroke-linejoin="round"/>
<path d="M354.598 274.542C354.07 267.766 354.6 252.242 354.6 246.792" stroke="black" stroke-opacity="0.9" stroke-width="32" stroke-linecap="round" stroke-linejoin="round"/>
<path d="M406.796 483.44C704.194 479.842 749.762 453.46 625.048 683.702" stroke="black" stroke-opacity="0.9" stroke-width="32" stroke-linecap="round" stroke-linejoin="round"/>
<path d="M571.1 690.896C393.62 683.7 273.702 748.458 356.446 529.008" stroke="black" stroke-opacity="0.9" stroke-width="32" stroke-linecap="round" stroke-linejoin="round"/>
<path d="M360.036 690.896C321.54 662.77 278.604 640.426 241.316 609.35" stroke="black" stroke-opacity="0.9" stroke-width="32" stroke-linecap="round" stroke-linejoin="round"/>
<path d="M436.79 380.312C438.048 411.124 439.188 441.796 439.188 472.648" stroke="black" stroke-opacity="0.9" stroke-width="32" stroke-linecap="round" stroke-linejoin="round"/>
<path d="M436.79 380.312C451.792 404.074 465.94 419.54 483.554 460.654" stroke="black" stroke-opacity="0.9" stroke-width="32" stroke-linecap="round" stroke-linejoin="round"/>
<path d="M160.235 238.082C151.199 240.444 142.098 239.98 132.883 240.82" stroke="black" stroke-opacity="0.9" stroke-width="32" stroke-linecap="round" stroke-linejoin="round"/>
<path d="M119.187 218.938C119.308 235.512 119.184 251.83 117.82 268.172" stroke="black" stroke-opacity="0.9" stroke-width="32" stroke-linecap="round" stroke-linejoin="round"/>
<path d="M555.482 231.244C562.31 230.536 569.178 229.646 575.994 228.51" stroke="black" stroke-opacity="0.9" stroke-width="32" stroke-linecap="round" stroke-linejoin="round"/>
<path d="M582.824 209.364C584.764 220.218 584.19 231.224 584.19 242.186" stroke="black" stroke-opacity="0.9" stroke-width="32" stroke-linecap="round" stroke-linejoin="round"/>
<line opacity="0.9" x1="437.335" y1="199.443" x2="410.443" y2="214.665" stroke="black" stroke-width="30" stroke-linecap="round"/>
<line opacity="0.9" x1="345.431" y1="213.24" x2="316.243" y2="203.094" stroke="black" stroke-width="30" stroke-linecap="round"/>
</svg>
